<?xml version="1.0" encoding="UTF-8" standalone="no" ?>
<!DOCTYPE svg PUBLIC "-//W3C//DTD SVG 1.1//EN" "http://www.w3.org/Graphics/SVG/1.1/DTD/svg11.dtd">
<svg xmlns="http://www.w3.org/2000/svg" xmlns:xlink="http://www.w3.org/1999/xlink" version="1.1" width="1080" height="1080" viewBox="0 0 1080 1080" xml:space="preserve">
<desc>Created with Fabric.js 5.2.4</desc>
<defs>
</defs>
<g transform="matrix(1 0 0 1 540 540)" id="110d8803-5a16-4fb5-88e4-f6a820d37fed"  >
<rect style="stroke: none; stroke-width: 1; stroke-dasharray: none; stroke-linecap: butt; stroke-dashoffset: 0; stroke-linejoin: miter; stroke-miterlimit: 4; fill: rgb(255,255,255); fill-rule: nonzero; opacity: 1; visibility: hidden;" vector-effect="non-scaling-stroke"  x="-540" y="-540" rx="0" ry="0" width="1080" height="1080" />
</g>
<g transform="matrix(1 0 0 1 540 540)" id="60c0e189-eddd-466f-ab18-9275e7a112bc"  >
</g>
<g transform="matrix(2.35 0 0 2.35 519.43 243.21)"  >
<path style="stroke: none; stroke-width: 1; stroke-dasharray: none; stroke-linecap: butt; stroke-dashoffset: 0; stroke-linejoin: miter; stroke-miterlimit: 4; fill: rgb(133,181,186); fill-rule: nonzero; opacity: 1;" vector-effect="non-scaling-stroke"  transform=" translate(-47.89, -50.63)" d="M 88.882 89.941 C 88.882 89.941 88.739 89.71000000000001 88.569 89.417 C 88.59 89.464 88.60000000000001 89.491 88.60000000000001 89.491 C 88.7155910695853 89.7657623139119 88.58668157902451 90.08221720914271 88.31200000000001 90.198 C 88.03800000000001 90.314 87.69900000000001 90.53099999999999 87.58300000000001 90.25699999999999 L 87.412 89.859 C 87.412 89.859 87.235 89.434 86.95700000000001 88.779 C 86.686 88.12899999999999 86.441 87.294 85.87500000000001 86.089 C 85.26300000000002 84.90299999999999 84.56500000000001 83.44 83.64900000000002 81.82 C 82.78000000000002 80.17399999999999 81.70200000000001 78.37299999999999 80.52900000000001 76.40499999999999 C 79.95900000000002 75.41099999999999 79.27700000000002 74.42799999999998 78.62400000000001 73.38099999999999 C 77.95400000000001 72.34299999999999 77.299 71.24599999999998 76.53500000000001 70.17699999999999 C 75.05000000000001 68.011 73.492 65.719 71.73800000000001 63.44999999999999 C 70.05900000000001 61.12399999999999 68.16900000000001 58.84399999999999 66.26400000000001 56.511999999999986 C 65.33200000000001 55.32799999999999 64.32300000000001 54.195999999999984 63.30500000000001 53.06199999999998 L 60.260000000000005 49.63899999999998 C 58.173 47.40399999999998 56.005 45.24299999999998 53.915000000000006 43.073999999999984 C 51.717000000000006 41.01399999999998 49.553000000000004 38.98899999999998 47.459 37.027999999999984 L 41.173 31.648999999999987 C 40.21285534277054 30.80583741162536 39.2200964065693 30.000555129370714 38.196999999999996 29.23499999999997 L 35.364000000000004 27.041999999999984 C 33.543000000000006 25.642999999999983 31.932000000000006 24.277999999999984 30.377000000000002 23.243999999999986 L 26.435000000000002 20.440999999999985 L 23.006000000000004 17.983999999999984 L 26.546000000000003 20.275999999999982 L 30.603 22.92399999999998 C 32.194 23.91399999999998 33.852000000000004 25.22299999999998 35.716 26.575999999999983 L 38.596000000000004 28.724999999999984 C 39.599000000000004 29.458999999999982 40.623000000000005 30.232999999999983 41.625 31.093999999999983 C 43.658 32.77899999999998 45.811 34.545999999999985 47.996 36.42299999999998 L 54.52 42.45399999999998 C 56.633 44.61899999999998 58.826 46.77699999999998 60.938 49.00999999999998 L 64.02 52.430999999999976 C 65.05 53.564999999999976 66.075 54.696999999999974 67.017 55.88099999999998 C 68.949 58.21199999999998 70.865 60.49599999999998 72.57 62.82399999999998 C 74.348 65.09499999999997 75.92999999999999 67.38999999999997 77.44099999999999 69.56099999999998 C 78.75787639268187 71.4907258331364 80.02692938834855 73.45265642338931 81.24699999999996 75.4449999999999 C 82.69799999999998 74.46199999999997 83.80799999999999 73.01399999999998 83.93599999999998 69.99199999999998 C 84.19699999999997 66.15599999999998 83.72299999999998 62.88699999999997 80.99999999999997 57.05499999999998 L 78.33799999999997 57.82499999999998 L 79.58699999999996 54.18999999999998 C 77.63999999999996 50.161999999999985 76.11999999999996 45.89299999999999 73.16499999999996 41.65499999999999 L 69.81699999999996 45.40999999999999 L 71.68199999999996 39.96999999999999 C 67.75999999999996 34.43399999999999 63.11399999999996 29.990999999999993 58.08499999999996 25.24199999999999 L 56.04199999999996 29.02699999999999 L 56.04999999999996 23.34599999999999 C 48.891 16.782 41.351 13.1 34.376 11.154 L 32.949999999999996 16.035 L 32.24999999999999 10.608 C 17.782999999999994 7.223000000000001 6.304999999999993 11.05 6.839999999999993 11.252 C 7.117999999999993 11.657 12.196999999999992 21.740000000000002 20.87599999999999 32.605000000000004 L 28.42499999999999 29.836000000000006 L 22.27599999999999 34.324000000000005 C 24.97599999999999 37.58200000000001 27.99499999999999 40.861000000000004 31.29299999999999 43.93900000000001 L 38.66099999999999 41.93000000000001 L 32.862999999999985 45.468 C 34.283999999999985 46.771 34.75099999999998 47.039 36.27399999999999 48.244 C 38.472999999999985 49.949 40.630999999999986 51.768 42.75099999999999 53.628 L 49.54499999999999 52.509 L 45.42499999999999 56.015 C 49.41299999999999 59.641 53.22199999999999 63.341 56.78399999999999 66.701 L 63.57099999999999 66.695 L 59.10199999999999 68.94 C 64.127 73.631 67.62499999999999 76.5 71.383 78.276 C 74.622 79.714 76.314 78.00099999999999 78.533 76.89099999999999 C 78.636 76.83899999999998 78.739 76.78899999999999 78.843 76.73899999999999 C 78.922 76.88399999999999 79.012 77.02799999999999 79.08800000000001 77.17299999999999 C 80.17500000000001 79.16699999999999 81.17 80.99399999999999 81.96400000000001 82.65499999999999 C 82.808 84.29499999999999 83.43200000000002 85.76799999999999 83.98700000000001 86.963 C 84.49100000000001 88.172 84.90400000000001 89.12599999999999 85.13400000000001 89.758 C 85.37700000000001 90.413 85.74300000000001 91.36099999999999 85.74300000000001 91.36099999999999 L 85.76500000000001 91.422 L 85.78200000000001 91.465 C 86.123 92.292 86.83400000000002 92.089 87.66100000000002 91.74900000000001 C 88.49100000000001 91.40700000000001 89.22300000000001 90.77000000000001 88.88200000000002 89.941" stroke-linecap="round" />
</g>
<g transform="matrix(1 0 0 1 -239.2 163.57)"  >
<rect style="stroke: none; stroke-width: 1; stroke-dasharray: none; stroke-linecap: butt; stroke-dashoffset: 0; stroke-linejoin: miter; stroke-miterlimit: 4; fill: rgb(255,255,255); fill-opacity: 0; fill-rule: nonzero; opacity: 1;" vector-effect="non-scaling-stroke"  x="-86.16699267" y="-25.105022125" rx="2.5" ry="2.5" width="172.33398534" height="50.21004425" />
</g>
<g transform="matrix(1 0 0 1 522.37 230.88)"  >
<rect style="stroke: none; stroke-width: 1; stroke-dasharray: none; stroke-linecap: butt; stroke-dashoffset: 0; stroke-linejoin: miter; stroke-miterlimit: 4; fill: rgb(255,255,255); fill-opacity: 0; fill-rule: nonzero; opacity: 1;" vector-effect="non-scaling-stroke"  x="-102.365298405" y="-105.99739436" rx="2.5" ry="2.5" width="204.73059681" height="211.99478872" />
</g>
</svg>