<svg xmlns="http://www.w3.org/2000/svg" width="1080" height="1080" xml:space="preserve"><path style="stroke:none;stroke-width:1;stroke-dasharray:none;stroke-linecap:butt;stroke-dashoffset:0;stroke-linejoin:miter;stroke-miterlimit:4;fill:#85b5ba;fill-rule:nonzero;opacity:1" vector-effect="non-scaling-stroke" transform="matrix(2.35 0 0 2.35 406.8885 124.2295)" d="M88.882 89.941s-.143-.231-.313-.524c.021.047.031.074.031.074.11559107.27476231-.01331842.5912172-.288.707-.274.116-.613.333-.729.059l-.171-.398s-.177-.425-.455-1.08c-.271-.65-.516-1.485-1.082-2.69-.612-1.186-1.31-2.649-2.226-4.269-.869-1.646-1.947-3.447-3.12-5.415-.57-.994-1.252-1.977-1.905-3.024-.67-1.038-1.325-2.135-2.089-3.204-1.485-2.166-3.043-4.458-4.797-6.727-1.679-2.326-3.569-4.606-5.474-6.938-.932-1.184-1.941-2.316-2.959-3.45l-3.045-3.423c-2.087-2.235-4.255-4.396-6.345-6.565-2.198-2.06-4.362-4.085-6.456-6.046l-6.286-5.379a49 49 0 0 0-2.976-2.414l-2.833-2.193c-1.821-1.399-3.432-2.764-4.987-3.798l-3.942-2.803-3.429-2.457 3.54 2.292 4.057 2.648c1.591.99 3.249 2.299 5.113 3.652l2.88 2.149c1.003.734 2.027 1.508 3.029 2.369 2.033 1.685 4.186 3.452 6.371 5.329l6.524 6.031c2.113 2.165 4.306 4.323 6.418 6.556l3.082 3.421c1.03 1.134 2.055 2.266 2.997 3.45 1.932 2.331 3.848 4.615 5.553 6.943 1.778 2.271 3.36 4.566 4.871 6.737a142 142 0 0 1 3.806 5.884c1.451-.983 2.561-2.431 2.689-5.453.261-3.836-.213-7.105-2.936-12.937l-2.662.77 1.249-3.635c-1.947-4.028-3.467-8.297-6.422-12.535l-3.348 3.755 1.865-5.44c-3.922-5.536-8.568-9.979-13.597-14.728l-2.043 3.785.008-5.681C48.891 16.782 41.351 13.1 34.376 11.154l-1.426 4.881-.7-5.427c-14.467-3.385-25.945.442-25.41.644.278.405 5.357 10.488 14.036 21.353l7.549-2.769-6.149 4.488c2.7 3.258 5.719 6.537 9.017 9.615l7.368-2.009-5.798 3.538c1.421 1.303 1.888 1.571 3.411 2.776 2.199 1.705 4.357 3.524 6.477 5.384l6.794-1.119-4.12 3.506c3.988 3.626 7.797 7.326 11.359 10.686l6.787-.006-4.469 2.245c5.025 4.691 8.523 7.56 12.281 9.336 3.239 1.438 4.931-.275 7.15-1.385.103-.052.206-.102.31-.152.079.145.169.289.245.434 1.087 1.994 2.082 3.821 2.876 5.482.844 1.64 1.468 3.113 2.023 4.308.504 1.209.917 2.163 1.147 2.795.243.655.609 1.603.609 1.603l.022.061.017.043c.341.827 1.052.624 1.879.284.83-.342 1.562-.979 1.221-1.808"/></svg>